<svg width="318" height="318" viewBox="0 0 318 318" fill="none" xmlns="http://www.w3.org/2000/svg">
<g clip-path="url(#clip0_492_4760)">
<path d="M318 57.2701L313.544 49.3729L309.148 41.4756L262.24 67.8199L227.255 51.0007H83.0978L79.7258 52.6285L13.127 0L7.52698 7.11349L1.92697 14.1671L61.6007 61.3091L0 90.9089V262.358L82.3752 318H227.977L310.352 262.358V90.9089L282.171 77.4053L318 57.2701H318ZM223.16 69.086L243.031 78.611L226.833 87.7137L213.405 81.1429H115.855L100.561 69.086H223.16ZM18.0648 167.229L76.1129 206.474V291.957L18.0648 252.712V167.229ZM94.1777 210.694H138.436L94.1777 278.574V210.694ZM101.885 299.915L155.176 218.169L208.467 299.915H101.885ZM216.175 278.635L171.856 210.694H216.175V278.635ZM292.288 252.712L234.239 291.957V206.474L292.288 167.229V252.712ZM292.288 102.303V145.466L222.437 192.609H87.915L18.0648 145.466V102.303L77.3773 73.788L147.77 129.37L146.927 130.455L141.327 137.569L95.9842 101.76L88.1562 95.5509L80.2679 89.3414L29.1443 114.42V134.133L96.2851 179.708H214.067L281.208 134.133V114.42L257.965 102.966H257.905L248.33 108.391L238.816 113.756L161.138 157.342L156.681 149.445L156.019 148.3L262.963 88.196L292.288 102.303V102.303Z" fill="#ff9c41"/>
</g>
<defs>
<clipPath id="clip0_492_4760">
<rect width="318" height="318" fill="#ff9c41"/>
</clipPath>
</defs>
</svg>
