<svg width="346" height="344" viewBox="0 0 346 344" fill="none" xmlns="http://www.w3.org/2000/svg">
<g clip-path="url(#clip0_492_4750)">
<path d="M332.67 136.876L305.467 159.066C301.728 156.835 297.807 154.845 293.706 153.157C289.423 151.287 284.899 149.72 280.315 148.454C271.389 146.042 262.04 144.715 252.389 144.715C194.123 144.715 146.715 192.109 146.715 250.357C146.715 251.684 146.715 253.01 146.775 254.276C146.956 258.738 147.378 263.2 148.102 267.482C148.765 271.703 149.73 275.863 150.937 279.903L73.8523 326.152C71.3191 327.659 68.4237 328.443 65.589 328.443C61.8493 328.443 58.1702 327.116 55.2144 324.644C49.9668 320.182 48.0971 312.886 50.5702 306.494L89.7759 206.279L5.81557 136.816C0.567678 132.475 -1.36209 125.42 0.989953 118.968C3.28198 112.516 9.2533 108.355 16.1294 108.355H122.287L153.953 11.0946C156.124 4.46199 162.276 0 169.273 0H169.333C176.39 0.0599965 182.543 4.58235 184.654 11.2757L215.174 108.355H322.477C329.353 108.355 335.324 112.516 337.616 119.028C339.968 125.54 337.978 132.535 332.67 136.876V136.876Z" fill="white"/>
<path d="M295.394 167.267C291.413 165.156 287.251 163.347 282.908 161.9C278.264 160.272 273.439 159.006 268.433 158.162C263.245 157.257 257.877 156.775 252.388 156.775C226.573 156.775 203.17 167.267 186.221 184.21C169.996 200.43 159.682 222.56 158.838 247.041C158.777 248.126 158.777 249.272 158.777 250.357C158.777 253.854 158.958 257.291 159.38 260.728C159.803 265.07 160.587 269.291 161.672 273.451C165.834 290.033 174.52 304.867 186.221 316.564C203.17 333.508 226.573 344 252.388 344C278.203 344 301.607 333.508 318.555 316.564C335.504 299.62 345.999 276.225 345.999 250.357C345.999 214.178 325.492 182.823 295.394 167.267H295.394ZM285.261 314.816V314.876C276.274 319.459 266.141 322.232 255.464 322.594C255.424 322.634 255.384 322.634 255.344 322.594C254.379 322.715 253.353 322.715 252.388 322.715C223.256 322.715 198.164 305.53 186.704 280.807C184.17 275.321 182.241 269.471 181.155 263.321C180.431 259.1 180.009 254.819 180.009 250.357C180.009 249.754 180.009 249.091 180.069 248.488C180.974 212.49 208.237 182.944 243.341 178.603L243.401 178.542C246.357 178.181 249.372 177.999 252.388 177.999C255.766 177.999 259.084 178.241 262.341 178.723C267.407 179.387 272.353 180.592 276.997 182.281C304.864 192.35 324.768 219.062 324.768 250.357C324.768 278.516 308.724 302.877 285.261 314.816V314.816Z" fill="white"/>
<path d="M299.073 241.674V259.04H261.074V297.028H243.702V259.04H205.703V241.674H243.702V203.686H261.074V241.674H299.073Z" fill="white"/>
</g>
<defs>
<clipPath id="clip0_492_4750">
<rect width="346" height="344" fill="white"/>
</clipPath>
</defs>
</svg>
