<svg width="309" height="308" viewBox="0 0 309 308" fill="none" xmlns="http://www.w3.org/2000/svg">
<path d="M154.515 308C133.729 308 113.545 303.939 94.5635 295.909C76.214 288.148 59.7597 277.02 45.6216 262.883C31.4835 248.746 20.3535 232.293 12.5926 213.946C4.56094 194.966 0.5 174.784 0.5 154C0.5 148.014 5.34305 143.172 11.3292 143.172C17.3153 143.172 22.1584 148.014 22.1584 154C22.1584 171.866 25.6478 189.191 32.5664 205.524C39.2444 221.285 48.7801 235.452 60.9328 247.603C73.0856 259.755 87.2538 269.32 103.016 275.967C119.32 282.855 136.647 286.344 154.515 286.344C172.383 286.344 189.71 282.855 206.044 275.937C221.806 269.259 235.975 259.725 248.127 247.573C260.28 235.421 269.846 221.255 276.494 205.494C283.382 189.191 286.872 171.866 286.872 154C286.872 136.134 283.382 118.809 276.464 102.476C269.808 86.7531 260.176 72.4646 248.097 60.3969C236.042 48.303 221.748 38.6695 206.014 32.0332C189.71 25.1453 172.383 21.6562 154.515 21.6562C148.529 21.6562 143.686 16.8137 143.686 10.8281C143.686 4.84258 148.529 0 154.515 0C175.301 0 195.485 4.06055 214.467 12.0914C232.816 19.8516 249.27 30.9805 263.408 45.1172C277.547 59.2539 288.646 75.7367 296.407 94.0543C304.439 113.034 308.5 133.216 308.5 154C308.5 174.784 304.439 194.966 296.407 213.946C288.677 232.293 277.547 248.746 263.408 262.883C249.27 277.02 232.786 288.118 214.467 295.879C195.485 303.939 175.301 308 154.515 308V308Z" fill="url(#paint0_angular_146_6765)"/>
<defs>
<radialGradient id="paint0_angular_146_6765" cx="0" cy="0" r="1" gradientUnits="userSpaceOnUse" gradientTransform="translate(154.5 154) rotate(-96.5269) scale(155.005 155.03)">
<stop stop-color="#FF9C41"/>
<stop offset="0.5" stop-color="#FF9C41" stop-opacity="0.380952"/>
<stop offset="0.78125" stop-color="#FF9C41" stop-opacity="0"/>
</radialGradient>
</defs>
</svg>
