<svg width="224" height="35" viewBox="0 0 224 35" fill="none" xmlns="http://www.w3.org/2000/svg">
<path d="M8.1108 2.2352L17.0978 24.3892L13.5866 23.6786L21.7376 2.2352H28.9272L14.8824 34.4212L0.8376 2.2352H8.1108ZM34.2495 2.2352H40.3105V33H34.2495V2.2352ZM54.3955 13.1868L54.2283 14.7334L55.1479 13.563L65.1799 2.2352H73.0383L60.3311 16.0292L73.0801 33H65.3889L55.9003 19.8748L54.3955 21.3796V33H48.2509V2.2352H54.3955V13.1868ZM77.6823 2.2352H83.7433V33H77.6823V2.2352ZM119.23 34.254L95.9055 13.1868L97.7029 14.19L97.8283 33H91.6837V1.023H91.9345L114.757 22.0066L113.42 21.4214L113.294 2.2352H119.397V34.254H119.23ZM152.274 29.9068C151.912 30.2969 151.341 30.701 150.561 31.119C149.78 31.5091 148.875 31.8714 147.844 32.2058C146.84 32.5402 145.809 32.8049 144.75 33C143.691 33.2229 142.688 33.3344 141.741 33.3344C139.233 33.3344 136.976 32.9721 134.969 32.2476C132.963 31.4952 131.249 30.4641 129.828 29.1544C128.407 27.8168 127.32 26.2423 126.567 24.431C125.815 22.6197 125.439 20.6411 125.439 18.4954C125.439 15.6809 125.857 13.2425 126.693 11.1804C127.557 9.0904 128.713 7.36267 130.162 5.9972C131.639 4.60387 133.325 3.5728 135.22 2.904C137.143 2.2352 139.149 1.9008 141.239 1.9008C143.218 1.9008 145.029 2.12373 146.673 2.5696C148.317 2.9876 149.711 3.51706 150.853 4.158L148.889 9.801C148.387 9.52233 147.718 9.24367 146.882 8.965C146.046 8.68633 145.196 8.4634 144.332 8.2962C143.469 8.10113 142.702 8.0036 142.033 8.0036C140.361 8.0036 138.884 8.2126 137.603 8.6306C136.321 9.0486 135.234 9.6756 134.342 10.5116C133.478 11.3476 132.823 12.3926 132.378 13.6466C131.932 14.8727 131.709 16.3079 131.709 17.952C131.709 19.4011 131.96 20.7108 132.461 21.8812C132.963 23.0237 133.659 23.9991 134.551 24.8072C135.471 25.6153 136.544 26.2284 137.77 26.6464C139.024 27.0644 140.403 27.2734 141.908 27.2734C142.772 27.2734 143.566 27.2177 144.291 27.1062C145.015 26.9669 145.628 26.7579 146.13 26.4792V22.759H140.821V16.907H152.274V29.9068ZM159.954 33V19.2896H156.986V15.4858H159.954V8.3798C159.954 5.8718 160.553 3.93507 161.751 2.5696C162.95 1.20413 164.691 0.5214 166.976 0.5214C167.589 0.5214 168.272 0.618933 169.024 0.813999C169.777 0.981198 170.446 1.25986 171.031 1.65L169.233 4.785C168.983 4.50633 168.69 4.31127 168.356 4.1998C168.049 4.08833 167.729 4.0326 167.394 4.0326C166.419 4.0326 165.653 4.367 165.095 5.0358C164.538 5.7046 164.259 6.84713 164.259 8.4634V15.4858H169.777V19.2896H164.259V33H159.954ZM182.074 33.418C180.04 33.418 178.298 33.0279 176.849 32.2476C175.4 31.4395 174.285 30.3387 173.505 28.9454C172.725 27.5242 172.335 25.9079 172.335 24.0966C172.335 22.3689 172.766 20.8083 173.63 19.415C174.522 17.9938 175.706 16.8652 177.183 16.0292C178.688 15.1932 180.346 14.7752 182.158 14.7752C184.498 14.7752 186.435 15.4579 187.968 16.8234C189.528 18.1889 190.573 20.0977 191.103 22.55L176.849 27.4824L175.846 24.9744L187.257 20.878L186.379 21.4214C186.045 20.5575 185.515 19.8051 184.791 19.1642C184.066 18.4954 183.077 18.161 181.823 18.161C180.82 18.161 179.914 18.4118 179.106 18.9134C178.326 19.3871 177.699 20.0559 177.225 20.9198C176.779 21.7558 176.556 22.7451 176.556 23.8876C176.556 25.058 176.793 26.0891 177.267 26.9808C177.769 27.8447 178.437 28.5274 179.273 29.029C180.137 29.5306 181.099 29.7814 182.158 29.7814C182.91 29.7814 183.621 29.6421 184.289 29.3634C184.986 29.0847 185.641 28.7364 186.254 28.3184L188.219 31.4952C187.299 32.0804 186.296 32.5541 185.209 32.9164C184.15 33.2508 183.105 33.418 182.074 33.418ZM200.982 33.3762C199.7 33.3762 198.46 33.1533 197.262 32.7074C196.063 32.2337 195.074 31.5509 194.294 30.6592L196.133 28.2348C196.885 28.9315 197.638 29.4609 198.39 29.8232C199.171 30.1576 199.909 30.3248 200.606 30.3248C201.163 30.3248 201.665 30.2691 202.11 30.1576C202.556 30.0183 202.919 29.7953 203.197 29.4888C203.476 29.1823 203.615 28.7782 203.615 28.2766C203.615 27.6914 203.42 27.2316 203.03 26.8972C202.64 26.5628 202.138 26.2841 201.525 26.0612C200.912 25.8383 200.257 25.6293 199.561 25.4342C198.084 24.9605 196.969 24.2917 196.217 23.4278C195.464 22.5361 195.088 21.4911 195.088 20.2928C195.088 19.3732 195.311 18.5093 195.757 17.7012C196.231 16.8652 196.941 16.1825 197.889 15.653C198.836 15.1235 200.007 14.8588 201.4 14.8588C202.682 14.8588 203.81 15.0121 204.786 15.3186C205.761 15.5973 206.667 16.0849 207.503 16.7816L205.831 19.3732C205.329 18.8716 204.73 18.4954 204.033 18.2446C203.364 17.9659 202.751 17.8127 202.194 17.7848C201.692 17.7848 201.233 17.8684 200.815 18.0356C200.397 18.1749 200.062 18.3979 199.811 18.7044C199.561 18.9831 199.435 19.3175 199.435 19.7076C199.407 20.2649 199.589 20.7247 199.979 21.087C200.397 21.4214 200.926 21.7001 201.567 21.923C202.208 22.1181 202.835 22.3271 203.448 22.55C204.312 22.8008 205.078 23.1491 205.747 23.595C206.416 24.013 206.945 24.5285 207.335 25.1416C207.726 25.7547 207.921 26.5349 207.921 27.4824C207.921 28.5135 207.67 29.4888 207.168 30.4084C206.667 31.3001 205.9 32.0247 204.869 32.582C203.838 33.1115 202.542 33.3762 200.982 33.3762ZM214.903 7.7946H219.208V15.5276H223.89V18.9134H219.208V33H214.903V18.9134H211.81V15.5276H214.903V7.7946Z" fill="#FF9C41"/>
</svg>
